<mxfile host="app.diagrams.net" modified="2022-11-27T11:12:18.696Z" agent="5.0 (X11; Linux x86_64) AppleWebKit/537.36 (KHTML, like Gecko) Chrome/107.0.0.0 Safari/537.36" etag="i6ePTmuA9NTsI24BdXD6" version="20.6.0" type="github">
  <diagram name="Page-1" id="10a91c8b-09ff-31b1-d368-03940ed4cc9e">
    <mxGraphModel dx="4680" dy="2224" grid="1" gridSize="10" guides="1" tooltips="1" connect="1" arrows="1" fold="1" page="1" pageScale="1" pageWidth="1700" pageHeight="1100" background="none" math="0" shadow="0">
      <root>
        <mxCell id="0" />
        <mxCell id="1" parent="0" />
        <mxCell id="62893188c0fa7362-1" value="&lt;font style=&quot;font-size: 14px;&quot;&gt;if(reg){&lt;br&gt;&lt;/font&gt;&lt;font style=&quot;font-size: 14px;&quot;&gt;}&lt;/font&gt;" style="whiteSpace=wrap;html=1;rounded=1;shadow=1;labelBackgroundColor=none;strokeWidth=1;fontFamily=Verdana;fontSize=12;align=center;" parent="1" vertex="1">
          <mxGeometry x="636.62" y="-990" width="120" height="60" as="geometry" />
        </mxCell>
        <mxCell id="62893188c0fa7362-2" value="&lt;font size=&quot;3&quot;&gt;if(event.eventUrl === &quot;masaiworkshop&quot;){run image}&lt;/font&gt;" style="whiteSpace=wrap;html=1;rounded=1;shadow=1;labelBackgroundColor=none;strokeWidth=1;fontFamily=Verdana;fontSize=12;align=center;" parent="1" vertex="1">
          <mxGeometry x="526.62" y="-800" width="340" height="60" as="geometry" />
        </mxCell>
        <mxCell id="62893188c0fa7362-5" value="" style="rounded=0;html=1;labelBackgroundColor=none;startArrow=none;startFill=0;startSize=5;endArrow=none;endFill=0;endSize=5;jettySize=auto;orthogonalLoop=1;strokeWidth=1;fontFamily=Verdana;fontSize=12" parent="1" source="62893188c0fa7362-1" target="62893188c0fa7362-2" edge="1">
          <mxGeometry x="-0.359" y="-11" relative="1" as="geometry">
            <mxPoint as="offset" />
          </mxGeometry>
        </mxCell>
        <mxCell id="62893188c0fa7362-8" value="&lt;span&gt;&lt;font style=&quot;font-size: 14px;&quot;&gt;if(event.isSparkEvent){ &lt;br&gt;&amp;lt;p&amp;gt;............&amp;lt;p&amp;gt; }&lt;/font&gt;&lt;/span&gt;" style="whiteSpace=wrap;html=1;rounded=1;shadow=1;labelBackgroundColor=none;strokeWidth=1;fontFamily=Verdana;fontSize=12;align=center;" parent="1" vertex="1">
          <mxGeometry x="501.62" y="-700" width="390" height="60" as="geometry" />
        </mxCell>
        <mxCell id="62893188c0fa7362-12" value="&lt;font style=&quot;font-size: 14px;&quot;&gt;if(event.registrationForm.name == &#39;true&#39;) {&lt;/font&gt;" style="whiteSpace=wrap;html=1;rounded=1;shadow=1;labelBackgroundColor=none;strokeWidth=1;fontFamily=Verdana;fontSize=12;align=center;" parent="1" vertex="1">
          <mxGeometry x="486.62" y="-570" width="420" height="60" as="geometry" />
        </mxCell>
        <mxCell id="62893188c0fa7362-14" value="Yes" style="rounded=0;html=1;labelBackgroundColor=none;startArrow=none;startFill=0;startSize=5;endArrow=none;endFill=0;endSize=5;jettySize=auto;orthogonalLoop=1;strokeWidth=1;fontFamily=Verdana;fontSize=12" parent="1" source="62893188c0fa7362-2" target="62893188c0fa7362-8" edge="1">
          <mxGeometry x="-0.2" y="-14" relative="1" as="geometry">
            <mxPoint as="offset" />
          </mxGeometry>
        </mxCell>
        <mxCell id="62893188c0fa7362-18" value="Yes" style="rounded=0;html=1;labelBackgroundColor=none;startArrow=none;startFill=0;startSize=5;endArrow=none;endFill=0;endSize=5;jettySize=auto;orthogonalLoop=1;strokeWidth=1;fontFamily=Verdana;fontSize=12" parent="1" source="62893188c0fa7362-8" target="62893188c0fa7362-12" edge="1">
          <mxGeometry x="-0.2168" y="-14" relative="1" as="geometry">
            <mxPoint as="offset" />
          </mxGeometry>
        </mxCell>
        <mxCell id="62893188c0fa7362-20" value="&lt;font style=&quot;font-size: 14px;&quot;&gt;if(event.isSparkEvent){firstName, lastName}&amp;nbsp;&lt;/font&gt;" style="whiteSpace=wrap;html=1;rounded=0;shadow=1;labelBackgroundColor=none;strokeWidth=2;fontFamily=Verdana;fontSize=12;align=center;" parent="1" vertex="1">
          <mxGeometry x="356.62" y="-400" width="330" height="60" as="geometry" />
        </mxCell>
        <mxCell id="62893188c0fa7362-21" value="&lt;font style=&quot;font-size: 14px;&quot;&gt;Enter FullName }&lt;/font&gt;" style="whiteSpace=wrap;html=1;rounded=0;shadow=1;labelBackgroundColor=none;strokeWidth=2;fontFamily=Verdana;fontSize=12;align=center;" parent="1" vertex="1">
          <mxGeometry x="776.62" y="-400" width="290" height="60" as="geometry" />
        </mxCell>
        <mxCell id="62893188c0fa7362-24" value="Yes" style="rounded=0;html=1;labelBackgroundColor=none;startArrow=none;startFill=0;startSize=5;endArrow=none;endFill=0;endSize=5;jettySize=auto;orthogonalLoop=1;strokeWidth=1;fontFamily=Verdana;fontSize=12" parent="1" source="62893188c0fa7362-12" target="62893188c0fa7362-20" edge="1">
          <mxGeometry x="-0.468" y="-13" relative="1" as="geometry">
            <mxPoint as="offset" />
          </mxGeometry>
        </mxCell>
        <mxCell id="QNZPNAqnqf72muDM4D6j-2" value="" style="endArrow=classic;html=1;rounded=0;exitX=1;exitY=0.377;exitDx=0;exitDy=0;exitPerimeter=0;" edge="1" parent="1" source="62893188c0fa7362-1">
          <mxGeometry width="50" height="50" relative="1" as="geometry">
            <mxPoint x="1006.62" y="-670" as="sourcePoint" />
            <mxPoint x="786.62" y="-1000" as="targetPoint" />
            <Array as="points">
              <mxPoint x="786.62" y="-1000" />
            </Array>
          </mxGeometry>
        </mxCell>
        <mxCell id="QNZPNAqnqf72muDM4D6j-4" value="&lt;span style=&quot;font-family: Verdana;&quot;&gt;&lt;font style=&quot;font-size: 14px;&quot;&gt;Complete your payment for (event.eventname,event.currency,event.event.price)&lt;/font&gt;&lt;/span&gt;" style="text;html=1;align=center;verticalAlign=middle;resizable=0;points=[];autosize=1;strokeColor=none;fillColor=none;" vertex="1" parent="1">
          <mxGeometry x="661.62" y="-1020" width="470" height="30" as="geometry" />
        </mxCell>
        <mxCell id="QNZPNAqnqf72muDM4D6j-5" value="" style="endArrow=classic;html=1;rounded=0;fontSize=14;entryX=0;entryY=0.5;entryDx=0;entryDy=0;exitX=1;exitY=0.5;exitDx=0;exitDy=0;" edge="1" parent="1" source="62893188c0fa7362-20" target="62893188c0fa7362-21">
          <mxGeometry width="50" height="50" relative="1" as="geometry">
            <mxPoint x="486.62" y="-490" as="sourcePoint" />
            <mxPoint x="536.62" y="-540" as="targetPoint" />
          </mxGeometry>
        </mxCell>
        <mxCell id="QNZPNAqnqf72muDM4D6j-6" value="if(event.location===&quot;offline&quot;){vaccinated status options" style="whiteSpace=wrap;html=1;fontSize=14;" vertex="1" parent="1">
          <mxGeometry x="357.62" y="-240" width="330" height="60" as="geometry" />
        </mxCell>
        <mxCell id="QNZPNAqnqf72muDM4D6j-8" value="Else{" style="whiteSpace=wrap;html=1;fontSize=14;" vertex="1" parent="1">
          <mxGeometry x="636.62" y="-910" width="120" height="60" as="geometry" />
        </mxCell>
        <mxCell id="QNZPNAqnqf72muDM4D6j-9" value="open" style="text;html=1;align=center;verticalAlign=middle;resizable=0;points=[];autosize=1;strokeColor=none;fillColor=none;fontSize=14;" vertex="1" parent="1">
          <mxGeometry x="781.62" y="-895" width="50" height="30" as="geometry" />
        </mxCell>
        <mxCell id="QNZPNAqnqf72muDM4D6j-11" value="" style="endArrow=classic;html=1;rounded=0;fontSize=14;exitX=0.5;exitY=1;exitDx=0;exitDy=0;entryX=0.5;entryY=0;entryDx=0;entryDy=0;" edge="1" parent="1" source="62893188c0fa7362-20" target="QNZPNAqnqf72muDM4D6j-6">
          <mxGeometry width="50" height="50" relative="1" as="geometry">
            <mxPoint x="546.62" y="-260" as="sourcePoint" />
            <mxPoint x="596.62" y="-310" as="targetPoint" />
          </mxGeometry>
        </mxCell>
        <mxCell id="QNZPNAqnqf72muDM4D6j-12" value="" style="endArrow=classic;html=1;rounded=0;fontSize=14;exitX=0.75;exitY=1;exitDx=0;exitDy=0;entryX=0.43;entryY=-0.014;entryDx=0;entryDy=0;entryPerimeter=0;" edge="1" parent="1" source="62893188c0fa7362-12" target="62893188c0fa7362-21">
          <mxGeometry width="50" height="50" relative="1" as="geometry">
            <mxPoint x="696.62" y="-410" as="sourcePoint" />
            <mxPoint x="746.62" y="-460" as="targetPoint" />
          </mxGeometry>
        </mxCell>
        <mxCell id="QNZPNAqnqf72muDM4D6j-14" value="Else{" style="rounded=1;whiteSpace=wrap;html=1;fontSize=14;" vertex="1" parent="1">
          <mxGeometry x="831.62" y="-480" width="120" height="60" as="geometry" />
        </mxCell>
        <mxCell id="QNZPNAqnqf72muDM4D6j-15" value="No" style="text;html=1;align=center;verticalAlign=middle;resizable=0;points=[];autosize=1;strokeColor=none;fillColor=none;fontSize=14;" vertex="1" parent="1">
          <mxGeometry x="821.62" y="-510" width="40" height="30" as="geometry" />
        </mxCell>
        <mxCell id="QNZPNAqnqf72muDM4D6j-17" value="if(event.eventUrl===&quot;azuredevopsday&quot;){&lt;br&gt;Do you have a devops experience or not?&lt;br&gt;(Yes/Not) }}}" style="whiteSpace=wrap;html=1;fontSize=14;" vertex="1" parent="1">
          <mxGeometry x="357.62" y="-130" width="330" height="80" as="geometry" />
        </mxCell>
        <mxCell id="QNZPNAqnqf72muDM4D6j-19" value="closing all curlibraces(&quot;{ }&quot;)&lt;br&gt;&amp;nbsp;including top of (Else) part" style="text;html=1;align=center;verticalAlign=middle;resizable=0;points=[];autosize=1;strokeColor=none;fillColor=none;fontSize=14;" vertex="1" parent="1">
          <mxGeometry x="781.62" y="-115" width="190" height="50" as="geometry" />
        </mxCell>
        <mxCell id="QNZPNAqnqf72muDM4D6j-20" value="" style="endArrow=classic;html=1;rounded=0;fontSize=14;exitX=1;exitY=0.5;exitDx=0;exitDy=0;" edge="1" parent="1" source="QNZPNAqnqf72muDM4D6j-17" target="QNZPNAqnqf72muDM4D6j-19">
          <mxGeometry width="50" height="50" relative="1" as="geometry">
            <mxPoint x="625.9093218813452" y="-40" as="sourcePoint" />
            <mxPoint x="706.62" y="-70" as="targetPoint" />
          </mxGeometry>
        </mxCell>
        <mxCell id="QNZPNAqnqf72muDM4D6j-21" value="" style="endArrow=classic;html=1;rounded=0;fontSize=14;exitX=0.5;exitY=1;exitDx=0;exitDy=0;entryX=0.5;entryY=0;entryDx=0;entryDy=0;" edge="1" parent="1" source="QNZPNAqnqf72muDM4D6j-6" target="QNZPNAqnqf72muDM4D6j-17">
          <mxGeometry width="50" height="50" relative="1" as="geometry">
            <mxPoint x="506.62" y="-130" as="sourcePoint" />
            <mxPoint x="556.62" y="-150" as="targetPoint" />
          </mxGeometry>
        </mxCell>
        <mxCell id="QNZPNAqnqf72muDM4D6j-22" value="" style="curved=1;endArrow=classic;html=1;rounded=0;fontSize=14;entryX=1.008;entryY=0.416;entryDx=0;entryDy=0;entryPerimeter=0;exitX=0.998;exitY=0.549;exitDx=0;exitDy=0;exitPerimeter=0;" edge="1" parent="1" source="QNZPNAqnqf72muDM4D6j-9" target="QNZPNAqnqf72muDM4D6j-19">
          <mxGeometry width="50" height="50" relative="1" as="geometry">
            <mxPoint x="846.62" y="-880" as="sourcePoint" />
            <mxPoint x="886.62" y="-910" as="targetPoint" />
            <Array as="points">
              <mxPoint x="1290" y="-860" />
              <mxPoint x="1270" y="-110" />
            </Array>
          </mxGeometry>
        </mxCell>
        <mxCell id="QNZPNAqnqf72muDM4D6j-23" value="&lt;span style=&quot;&quot;&gt;	&lt;/span&gt;if(event.registrationForm.reasonFor == &#39;true&#39;) {&amp;nbsp;&lt;br&gt;why do want to attend &amp;lt;%event.event.name %&amp;gt;? }" style="whiteSpace=wrap;html=1;fontSize=14;" vertex="1" parent="1">
          <mxGeometry x="357.62" width="329" height="60" as="geometry" />
        </mxCell>
        <mxCell id="QNZPNAqnqf72muDM4D6j-25" value="if(event.registrationForm.email == &#39;true&#39;) { email }" style="whiteSpace=wrap;html=1;fontSize=14;" vertex="1" parent="1">
          <mxGeometry x="356.62" y="110" width="330" height="60" as="geometry" />
        </mxCell>
        <mxCell id="QNZPNAqnqf72muDM4D6j-26" value="if(event.isSparkEvent) {" style="whiteSpace=wrap;html=1;fontSize=14;" vertex="1" parent="1">
          <mxGeometry x="357.62" y="220" width="330" height="60" as="geometry" />
        </mxCell>
        <mxCell id="QNZPNAqnqf72muDM4D6j-28" value="" style="endArrow=classic;html=1;rounded=0;fontSize=14;entryX=0.513;entryY=-0.051;entryDx=0;entryDy=0;entryPerimeter=0;exitX=0.25;exitY=1;exitDx=0;exitDy=0;" edge="1" parent="1" source="QNZPNAqnqf72muDM4D6j-26" target="QNZPNAqnqf72muDM4D6j-43">
          <mxGeometry width="50" height="50" relative="1" as="geometry">
            <mxPoint x="656.62" y="290" as="sourcePoint" />
            <mxPoint x="310.000000000001" y="335.1399999999994" as="targetPoint" />
          </mxGeometry>
        </mxCell>
        <mxCell id="QNZPNAqnqf72muDM4D6j-29" value="open curli" style="text;html=1;align=center;verticalAlign=middle;resizable=0;points=[];autosize=1;strokeColor=none;fillColor=none;fontSize=14;" vertex="1" parent="1">
          <mxGeometry x="761.62" y="235" width="80" height="30" as="geometry" />
        </mxCell>
        <mxCell id="QNZPNAqnqf72muDM4D6j-30" value="" style="endArrow=classic;html=1;rounded=0;fontSize=14;exitX=1;exitY=0.5;exitDx=0;exitDy=0;entryX=-0.056;entryY=0.404;entryDx=0;entryDy=0;entryPerimeter=0;" edge="1" parent="1" source="QNZPNAqnqf72muDM4D6j-26" target="QNZPNAqnqf72muDM4D6j-29">
          <mxGeometry width="50" height="50" relative="1" as="geometry">
            <mxPoint x="716.62" y="280" as="sourcePoint" />
            <mxPoint x="766.62" y="230" as="targetPoint" />
          </mxGeometry>
        </mxCell>
        <mxCell id="QNZPNAqnqf72muDM4D6j-31" value="" style="endArrow=classic;html=1;rounded=0;fontSize=14;exitX=0.864;exitY=1.015;exitDx=0;exitDy=0;exitPerimeter=0;" edge="1" parent="1">
          <mxGeometry width="50" height="50" relative="1" as="geometry">
            <mxPoint x="401.7400000000008" y="400.89999999999964" as="sourcePoint" />
            <mxPoint x="536.62" y="540" as="targetPoint" />
          </mxGeometry>
        </mxCell>
        <mxCell id="QNZPNAqnqf72muDM4D6j-32" value="Else{" style="whiteSpace=wrap;html=1;fontSize=14;" vertex="1" parent="1">
          <mxGeometry x="357.62" y="440" width="245" height="60" as="geometry" />
        </mxCell>
        <mxCell id="QNZPNAqnqf72muDM4D6j-33" value="if(event.eventUrl === &quot;learnguniict&quot;){&lt;br&gt;college/schoolName }" style="whiteSpace=wrap;html=1;fontSize=14;" vertex="1" parent="1">
          <mxGeometry x="482.62" y="540" width="344" height="60" as="geometry" />
        </mxCell>
        <mxCell id="QNZPNAqnqf72muDM4D6j-34" value="Else{&lt;br&gt;college/organisation name } } }&amp;nbsp; &amp;nbsp;" style="whiteSpace=wrap;html=1;fontSize=14;" vertex="1" parent="1">
          <mxGeometry x="574.12" y="640" width="245" height="60" as="geometry" />
        </mxCell>
        <mxCell id="QNZPNAqnqf72muDM4D6j-39" value="" style="endArrow=classic;html=1;rounded=0;fontSize=14;" edge="1" parent="1">
          <mxGeometry width="50" height="50" relative="1" as="geometry">
            <mxPoint x="656.62" y="600" as="sourcePoint" />
            <mxPoint x="686.62" y="640" as="targetPoint" />
          </mxGeometry>
        </mxCell>
        <mxCell id="QNZPNAqnqf72muDM4D6j-41" value="" style="curved=1;endArrow=classic;html=1;rounded=0;fontSize=14;exitX=1.067;exitY=0.581;exitDx=0;exitDy=0;exitPerimeter=0;entryX=1;entryY=0.5;entryDx=0;entryDy=0;" edge="1" parent="1" source="QNZPNAqnqf72muDM4D6j-29" target="QNZPNAqnqf72muDM4D6j-34">
          <mxGeometry width="50" height="50" relative="1" as="geometry">
            <mxPoint x="856.62" y="260" as="sourcePoint" />
            <mxPoint x="836.62" y="670" as="targetPoint" />
            <Array as="points">
              <mxPoint x="1166.62" y="310" />
              <mxPoint x="1136.62" y="600" />
            </Array>
          </mxGeometry>
        </mxCell>
        <mxCell id="QNZPNAqnqf72muDM4D6j-42" value="" style="curved=1;endArrow=classic;html=1;rounded=0;fontSize=14;entryX=1;entryY=0.5;entryDx=0;entryDy=0;" edge="1" parent="1" target="QNZPNAqnqf72muDM4D6j-34">
          <mxGeometry width="50" height="50" relative="1" as="geometry">
            <mxPoint x="616.62" y="450" as="sourcePoint" />
            <mxPoint x="826.62" y="660" as="targetPoint" />
            <Array as="points">
              <mxPoint x="966.62" y="410" />
              <mxPoint x="966.62" y="530" />
            </Array>
          </mxGeometry>
        </mxCell>
        <mxCell id="QNZPNAqnqf72muDM4D6j-43" value="&amp;nbsp;if(event.eventUrl==&quot;learngraphicera&quot;){&lt;br&gt;select your college name!! }" style="whiteSpace=wrap;html=1;fontSize=14;" vertex="1" parent="1">
          <mxGeometry x="200" y="340" width="344" height="60" as="geometry" />
        </mxCell>
        <mxCell id="QNZPNAqnqf72muDM4D6j-44" value="" style="endArrow=classic;html=1;rounded=0;fontSize=14;exitX=0.183;exitY=1.02;exitDx=0;exitDy=0;exitPerimeter=0;" edge="1" parent="1" source="QNZPNAqnqf72muDM4D6j-43">
          <mxGeometry width="50" height="50" relative="1" as="geometry">
            <mxPoint x="280" y="410" as="sourcePoint" />
            <mxPoint x="220" y="450" as="targetPoint" />
          </mxGeometry>
        </mxCell>
        <mxCell id="QNZPNAqnqf72muDM4D6j-45" value="if(event.registrationForm.fbUrl == &#39;true&#39;) {&amp;nbsp;&lt;br&gt;Facebook profile url! }" style="whiteSpace=wrap;html=1;fontSize=14;" vertex="1" parent="1">
          <mxGeometry x="-50" y="450" width="300" height="60" as="geometry" />
        </mxCell>
        <mxCell id="QNZPNAqnqf72muDM4D6j-46" value="if(event.registrationForm.number == &#39;true&#39;) {" style="whiteSpace=wrap;html=1;fontSize=14;" vertex="1" parent="1">
          <mxGeometry x="-50" y="550" width="300" height="60" as="geometry" />
        </mxCell>
        <mxCell id="QNZPNAqnqf72muDM4D6j-47" value="if(event.eventUrl === &quot;learnguniict&quot;){&lt;br&gt;Mobole no. (Whatsapp),&lt;br&gt;highest qualificaation&amp;nbsp;" style="whiteSpace=wrap;html=1;fontSize=14;" vertex="1" parent="1">
          <mxGeometry x="-50" y="650" width="300" height="60" as="geometry" />
        </mxCell>
        <mxCell id="QNZPNAqnqf72muDM4D6j-50" value="Else {&lt;br&gt;contact number }" style="whiteSpace=wrap;html=1;fontSize=14;" vertex="1" parent="1">
          <mxGeometry x="210" y="760" width="170" height="60" as="geometry" />
        </mxCell>
        <mxCell id="QNZPNAqnqf72muDM4D6j-51" value="" style="endArrow=classic;html=1;rounded=0;fontSize=14;exitX=0.874;exitY=1.059;exitDx=0;exitDy=0;exitPerimeter=0;entryX=0.294;entryY=0;entryDx=0;entryDy=0;entryPerimeter=0;" edge="1" parent="1" source="QNZPNAqnqf72muDM4D6j-47" target="QNZPNAqnqf72muDM4D6j-50">
          <mxGeometry width="50" height="50" relative="1" as="geometry">
            <mxPoint x="300" y="680" as="sourcePoint" />
            <mxPoint x="350" y="630" as="targetPoint" />
          </mxGeometry>
        </mxCell>
        <mxCell id="QNZPNAqnqf72muDM4D6j-52" value="if(!event.isSparkEvent) {&lt;br&gt;job title. } }" style="whiteSpace=wrap;html=1;fontSize=14;" vertex="1" parent="1">
          <mxGeometry x="130" y="860" width="290" height="60" as="geometry" />
        </mxCell>
        <mxCell id="QNZPNAqnqf72muDM4D6j-53" value="" style="curved=1;endArrow=classic;html=1;rounded=0;fontSize=14;exitX=1.009;exitY=0.364;exitDx=0;exitDy=0;exitPerimeter=0;entryX=1.013;entryY=0.145;entryDx=0;entryDy=0;entryPerimeter=0;" edge="1" parent="1" source="QNZPNAqnqf72muDM4D6j-47" target="QNZPNAqnqf72muDM4D6j-52">
          <mxGeometry width="50" height="50" relative="1" as="geometry">
            <mxPoint x="300" y="800" as="sourcePoint" />
            <mxPoint x="430" y="890" as="targetPoint" />
            <Array as="points">
              <mxPoint x="320" y="650" />
              <mxPoint x="480" y="800" />
            </Array>
          </mxGeometry>
        </mxCell>
        <mxCell id="QNZPNAqnqf72muDM4D6j-56" value="closing all curli&amp;nbsp;" style="text;html=1;align=center;verticalAlign=middle;resizable=0;points=[];autosize=1;strokeColor=none;fillColor=none;fontSize=14;" vertex="1" parent="1">
          <mxGeometry x="420" y="875" width="120" height="30" as="geometry" />
        </mxCell>
        <mxCell id="QNZPNAqnqf72muDM4D6j-57" value="" style="endArrow=classic;html=1;rounded=0;fontSize=14;exitX=0.373;exitY=1.026;exitDx=0;exitDy=0;exitPerimeter=0;" edge="1" parent="1" source="QNZPNAqnqf72muDM4D6j-50" target="QNZPNAqnqf72muDM4D6j-52">
          <mxGeometry width="50" height="50" relative="1" as="geometry">
            <mxPoint x="290" y="830" as="sourcePoint" />
            <mxPoint x="350" y="750" as="targetPoint" />
          </mxGeometry>
        </mxCell>
        <mxCell id="QNZPNAqnqf72muDM4D6j-58" value="" style="endArrow=classic;html=1;rounded=0;fontSize=14;exitX=0.5;exitY=1;exitDx=0;exitDy=0;entryX=0.5;entryY=0;entryDx=0;entryDy=0;" edge="1" parent="1" source="QNZPNAqnqf72muDM4D6j-45" target="QNZPNAqnqf72muDM4D6j-46">
          <mxGeometry width="50" height="50" relative="1" as="geometry">
            <mxPoint x="-250" y="770" as="sourcePoint" />
            <mxPoint x="-200" y="720" as="targetPoint" />
          </mxGeometry>
        </mxCell>
        <mxCell id="QNZPNAqnqf72muDM4D6j-59" value="" style="endArrow=classic;html=1;rounded=0;fontSize=14;entryX=0.5;entryY=0;entryDx=0;entryDy=0;exitX=0.5;exitY=1;exitDx=0;exitDy=0;" edge="1" parent="1" source="QNZPNAqnqf72muDM4D6j-46" target="QNZPNAqnqf72muDM4D6j-47">
          <mxGeometry width="50" height="50" relative="1" as="geometry">
            <mxPoint x="100" y="620" as="sourcePoint" />
            <mxPoint x="20" y="610" as="targetPoint" />
          </mxGeometry>
        </mxCell>
        <mxCell id="QNZPNAqnqf72muDM4D6j-60" value="&amp;nbsp;if(event.registrationForm.age == &#39;true&#39;) {&lt;br&gt;DateOfBirth }" style="whiteSpace=wrap;html=1;fontSize=14;" vertex="1" parent="1">
          <mxGeometry x="-250" y="760" width="300" height="60" as="geometry" />
        </mxCell>
        <mxCell id="QNZPNAqnqf72muDM4D6j-65" value="" style="endArrow=classic;html=1;rounded=0;fontSize=14;exitX=0.25;exitY=1;exitDx=0;exitDy=0;entryX=0.87;entryY=-0.02;entryDx=0;entryDy=0;entryPerimeter=0;" edge="1" parent="1" source="QNZPNAqnqf72muDM4D6j-47" target="QNZPNAqnqf72muDM4D6j-60">
          <mxGeometry width="50" height="50" relative="1" as="geometry">
            <mxPoint x="-30" y="800" as="sourcePoint" />
            <mxPoint x="20" y="750" as="targetPoint" />
          </mxGeometry>
        </mxCell>
        <mxCell id="QNZPNAqnqf72muDM4D6j-66" value="if(event.registrationForm.gender == &#39;true&#39;) {&lt;br&gt;Gender }" style="whiteSpace=wrap;html=1;fontSize=14;" vertex="1" parent="1">
          <mxGeometry x="-250" y="860" width="300" height="60" as="geometry" />
        </mxCell>
        <mxCell id="QNZPNAqnqf72muDM4D6j-67" value="" style="endArrow=classic;html=1;rounded=0;fontSize=14;exitX=0.5;exitY=1;exitDx=0;exitDy=0;entryX=0.5;entryY=0;entryDx=0;entryDy=0;" edge="1" parent="1" source="QNZPNAqnqf72muDM4D6j-60" target="QNZPNAqnqf72muDM4D6j-66">
          <mxGeometry width="50" height="50" relative="1" as="geometry">
            <mxPoint x="-40" y="960" as="sourcePoint" />
            <mxPoint x="10" y="910" as="targetPoint" />
          </mxGeometry>
        </mxCell>
        <mxCell id="QNZPNAqnqf72muDM4D6j-68" value="if(event.isSparkEvent){&lt;br&gt;what is your pronouns?&lt;br&gt;}" style="whiteSpace=wrap;html=1;fontSize=14;" vertex="1" parent="1">
          <mxGeometry x="-250" y="970" width="300" height="60" as="geometry" />
        </mxCell>
        <mxCell id="QNZPNAqnqf72muDM4D6j-69" value="" style="endArrow=classic;html=1;rounded=0;fontSize=14;exitX=0.5;exitY=1;exitDx=0;exitDy=0;" edge="1" parent="1" source="QNZPNAqnqf72muDM4D6j-66" target="QNZPNAqnqf72muDM4D6j-68">
          <mxGeometry width="50" height="50" relative="1" as="geometry">
            <mxPoint x="-90" y="830" as="sourcePoint" />
            <mxPoint x="-90" y="870" as="targetPoint" />
          </mxGeometry>
        </mxCell>
        <mxCell id="QNZPNAqnqf72muDM4D6j-70" value="Else {&lt;br&gt;empty code&lt;br&gt;}" style="whiteSpace=wrap;html=1;fontSize=14;" vertex="1" parent="1">
          <mxGeometry y="1090" width="170" height="60" as="geometry" />
        </mxCell>
        <mxCell id="QNZPNAqnqf72muDM4D6j-71" value="" style="endArrow=classic;html=1;rounded=0;fontSize=14;exitX=0.75;exitY=1;exitDx=0;exitDy=0;" edge="1" parent="1" source="QNZPNAqnqf72muDM4D6j-68" target="QNZPNAqnqf72muDM4D6j-70">
          <mxGeometry width="50" height="50" relative="1" as="geometry">
            <mxPoint x="-40" y="930" as="sourcePoint" />
            <mxPoint x="10" y="880" as="targetPoint" />
          </mxGeometry>
        </mxCell>
        <mxCell id="QNZPNAqnqf72muDM4D6j-72" value="if(event.registrationForm.parentName == &#39;true&#39;) {&lt;br&gt;parentsName&amp;nbsp; }" style="whiteSpace=wrap;html=1;fontSize=14;" vertex="1" parent="1">
          <mxGeometry x="-410" y="1090" width="350" height="70" as="geometry" />
        </mxCell>
        <mxCell id="QNZPNAqnqf72muDM4D6j-73" value="" style="endArrow=classic;html=1;rounded=0;fontSize=14;exitX=0.25;exitY=1;exitDx=0;exitDy=0;entryX=0.5;entryY=0;entryDx=0;entryDy=0;" edge="1" parent="1" source="QNZPNAqnqf72muDM4D6j-68" target="QNZPNAqnqf72muDM4D6j-72">
          <mxGeometry width="50" height="50" relative="1" as="geometry">
            <mxPoint x="-90" y="929.9999999999995" as="sourcePoint" />
            <mxPoint x="-90" y="979.9999999999995" as="targetPoint" />
          </mxGeometry>
        </mxCell>
        <mxCell id="QNZPNAqnqf72muDM4D6j-74" value="&amp;nbsp;if(event.registrationForm.parentEmail == &#39;true&#39;) {&lt;br&gt;parentsEmailid }" style="whiteSpace=wrap;html=1;fontSize=14;" vertex="1" parent="1">
          <mxGeometry x="-410" y="1230" width="350" height="60" as="geometry" />
        </mxCell>
        <mxCell id="QNZPNAqnqf72muDM4D6j-75" value="" style="endArrow=classic;html=1;rounded=0;fontSize=14;exitX=0.5;exitY=1;exitDx=0;exitDy=0;" edge="1" parent="1" source="QNZPNAqnqf72muDM4D6j-72" target="QNZPNAqnqf72muDM4D6j-74">
          <mxGeometry width="50" height="50" relative="1" as="geometry">
            <mxPoint x="-90" y="929.9999999999995" as="sourcePoint" />
            <mxPoint x="-90" y="979.9999999999995" as="targetPoint" />
          </mxGeometry>
        </mxCell>
        <mxCell id="QNZPNAqnqf72muDM4D6j-76" value="if(event.registrationForm.parentContact == &#39;true&#39;) {&lt;br&gt;parents Contact number&amp;nbsp; }" style="whiteSpace=wrap;html=1;fontSize=14;" vertex="1" parent="1">
          <mxGeometry x="-410" y="1340" width="350" height="60" as="geometry" />
        </mxCell>
        <mxCell id="QNZPNAqnqf72muDM4D6j-77" value="" style="endArrow=classic;html=1;rounded=0;fontSize=14;exitX=0.5;exitY=1;exitDx=0;exitDy=0;entryX=0.5;entryY=0;entryDx=0;entryDy=0;" edge="1" parent="1" source="QNZPNAqnqf72muDM4D6j-74" target="QNZPNAqnqf72muDM4D6j-76">
          <mxGeometry width="50" height="50" relative="1" as="geometry">
            <mxPoint x="-225" y="1169.9999999999995" as="sourcePoint" />
            <mxPoint x="-225" y="1239.9999999999995" as="targetPoint" />
          </mxGeometry>
        </mxCell>
        <mxCell id="QNZPNAqnqf72muDM4D6j-78" value="&amp;nbsp;if(event.registrationForm.city == &#39;true&#39;) {&lt;br&gt;city&amp;nbsp; &amp;nbsp;}" style="whiteSpace=wrap;html=1;fontSize=14;" vertex="1" parent="1">
          <mxGeometry x="-410" y="1460" width="360" height="60" as="geometry" />
        </mxCell>
        <mxCell id="QNZPNAqnqf72muDM4D6j-79" value="if(event.registrationForm.state == &#39;true&#39;) {&lt;br&gt;state&amp;nbsp; }" style="whiteSpace=wrap;html=1;fontSize=14;" vertex="1" parent="1">
          <mxGeometry x="-415" y="1580" width="360" height="60" as="geometry" />
        </mxCell>
        <mxCell id="QNZPNAqnqf72muDM4D6j-80" value="if(event.registrationForm.state_dropdown == &#39;true&#39;) {&lt;br&gt;cityname dropdown button&amp;nbsp; &amp;nbsp;}" style="whiteSpace=wrap;html=1;fontSize=14;" vertex="1" parent="1">
          <mxGeometry x="-415" y="1700" width="360" height="60" as="geometry" />
        </mxCell>
        <mxCell id="QNZPNAqnqf72muDM4D6j-81" value="if(event.registrationForm.postcode == &#39;true&#39;) {&lt;br&gt;postcode&amp;nbsp; }" style="whiteSpace=wrap;html=1;fontSize=14;" vertex="1" parent="1">
          <mxGeometry x="-415" y="1820" width="360" height="60" as="geometry" />
        </mxCell>
        <mxCell id="QNZPNAqnqf72muDM4D6j-82" value="if(event.registrationForm.country == &#39;true&#39;) {&lt;br&gt;country&amp;nbsp; }" style="whiteSpace=wrap;html=1;fontSize=14;" vertex="1" parent="1">
          <mxGeometry x="-410" y="1940" width="360" height="60" as="geometry" />
        </mxCell>
        <mxCell id="QNZPNAqnqf72muDM4D6j-83" value="if(event.registrationForm.schoolName == &#39;true&#39; || event.registrationForm.school == &#39;true&#39;) {&lt;br&gt;School name&amp;nbsp; }" style="whiteSpace=wrap;html=1;fontSize=14;" vertex="1" parent="1">
          <mxGeometry x="-650" y="2060" width="595" height="60" as="geometry" />
        </mxCell>
        <mxCell id="QNZPNAqnqf72muDM4D6j-84" value="if(event.registrationForm.classSchool == &#39;true&#39; || event.registrationForm.class == &#39;true&#39;) {&lt;br&gt;class&amp;nbsp; &amp;nbsp; }" style="whiteSpace=wrap;html=1;fontSize=14;" vertex="1" parent="1">
          <mxGeometry x="-650" y="2180" width="595" height="60" as="geometry" />
        </mxCell>
        <mxCell id="QNZPNAqnqf72muDM4D6j-85" value="if(event.registrationForm.classSchool == &#39;true&#39; || event.registrationForm.classSection == &#39;true&#39;) {&lt;br&gt;section }" style="whiteSpace=wrap;html=1;fontSize=14;" vertex="1" parent="1">
          <mxGeometry x="-650" y="2300" width="595" height="60" as="geometry" />
        </mxCell>
        <mxCell id="QNZPNAqnqf72muDM4D6j-86" value="if(event.registrationForm.subjectTaught == &#39;true&#39; ) {&amp;nbsp;&lt;br&gt;subject taught }" style="whiteSpace=wrap;html=1;fontSize=14;" vertex="1" parent="1">
          <mxGeometry x="-430" y="2420" width="375" height="60" as="geometry" />
        </mxCell>
        <mxCell id="QNZPNAqnqf72muDM4D6j-87" value="if(event.registrationForm.clgName == &#39;true&#39; &amp;amp;&amp;amp; !event.isSparkEvent) {" style="whiteSpace=wrap;html=1;fontSize=14;" vertex="1" parent="1">
          <mxGeometry x="-530" y="2540" width="475" height="60" as="geometry" />
        </mxCell>
        <mxCell id="QNZPNAqnqf72muDM4D6j-88" value="if(event.isSparkEvent){&lt;br&gt;are you a college student or working professional&amp;nbsp; }&amp;nbsp;" style="whiteSpace=wrap;html=1;fontSize=14;" vertex="1" parent="1">
          <mxGeometry x="-430" y="2660" width="370" height="60" as="geometry" />
        </mxCell>
        <mxCell id="QNZPNAqnqf72muDM4D6j-89" value="if(event.eventUrl === &quot;learnguniict&quot;) {&amp;nbsp;&lt;br&gt;college name /school name }" style="whiteSpace=wrap;html=1;fontSize=14;" vertex="1" parent="1">
          <mxGeometry x="-430" y="2780" width="380" height="60" as="geometry" />
        </mxCell>
        <mxCell id="QNZPNAqnqf72muDM4D6j-91" value="" style="endArrow=classic;html=1;rounded=0;fontSize=14;" edge="1" parent="1">
          <mxGeometry width="50" height="50" relative="1" as="geometry">
            <mxPoint x="-140" y="2840" as="sourcePoint" />
            <mxPoint x="-80" y="2900" as="targetPoint" />
          </mxGeometry>
        </mxCell>
        <mxCell id="QNZPNAqnqf72muDM4D6j-92" value="else {&lt;br&gt;college name/organization&lt;br&gt;} }" style="whiteSpace=wrap;html=1;fontSize=14;" vertex="1" parent="1">
          <mxGeometry x="-100" y="2900" width="240" height="60" as="geometry" />
        </mxCell>
        <mxCell id="QNZPNAqnqf72muDM4D6j-93" value="closing curli" style="text;html=1;align=center;verticalAlign=middle;resizable=0;points=[];autosize=1;strokeColor=none;fillColor=none;fontSize=14;" vertex="1" parent="1">
          <mxGeometry x="160" y="2915" width="100" height="30" as="geometry" />
        </mxCell>
        <mxCell id="QNZPNAqnqf72muDM4D6j-94" value="" style="curved=1;endArrow=classic;html=1;rounded=0;fontSize=14;exitX=1;exitY=0.5;exitDx=0;exitDy=0;" edge="1" parent="1" source="QNZPNAqnqf72muDM4D6j-87">
          <mxGeometry width="50" height="50" relative="1" as="geometry">
            <mxPoint x="-40" y="2560" as="sourcePoint" />
            <mxPoint x="150" y="2920" as="targetPoint" />
            <Array as="points">
              <mxPoint x="380" y="2580" />
              <mxPoint x="410" y="2890" />
            </Array>
          </mxGeometry>
        </mxCell>
        <mxCell id="QNZPNAqnqf72muDM4D6j-95" value="" style="endArrow=classic;html=1;rounded=0;fontSize=14;exitX=0.491;exitY=1.021;exitDx=0;exitDy=0;entryX=0.479;entryY=0.026;entryDx=0;entryDy=0;entryPerimeter=0;exitPerimeter=0;" edge="1" parent="1" source="QNZPNAqnqf72muDM4D6j-76" target="QNZPNAqnqf72muDM4D6j-78">
          <mxGeometry width="50" height="50" relative="1" as="geometry">
            <mxPoint x="-225" y="1299.9999999999995" as="sourcePoint" />
            <mxPoint x="-225" y="1349.9999999999995" as="targetPoint" />
          </mxGeometry>
        </mxCell>
        <mxCell id="QNZPNAqnqf72muDM4D6j-97" value="" style="endArrow=classic;html=1;rounded=0;fontSize=14;exitX=0.484;exitY=1.016;exitDx=0;exitDy=0;entryX=0.5;entryY=0;entryDx=0;entryDy=0;exitPerimeter=0;" edge="1" parent="1" source="QNZPNAqnqf72muDM4D6j-78">
          <mxGeometry width="50" height="50" relative="1" as="geometry">
            <mxPoint x="-235.2" y="1529.9999999999995" as="sourcePoint" />
            <mxPoint x="-235.2" y="1579.9999999999995" as="targetPoint" />
          </mxGeometry>
        </mxCell>
        <mxCell id="QNZPNAqnqf72muDM4D6j-98" value="" style="endArrow=classic;html=1;rounded=0;fontSize=14;exitX=0.484;exitY=1.016;exitDx=0;exitDy=0;entryX=0.5;entryY=0;entryDx=0;entryDy=0;exitPerimeter=0;" edge="1" parent="1">
          <mxGeometry width="50" height="50" relative="1" as="geometry">
            <mxPoint x="-235.27999999999977" y="1640.96" as="sourcePoint" />
            <mxPoint x="-234.72000000000006" y="1699.9999999999995" as="targetPoint" />
          </mxGeometry>
        </mxCell>
        <mxCell id="QNZPNAqnqf72muDM4D6j-99" value="" style="endArrow=classic;html=1;rounded=0;fontSize=14;exitX=0.484;exitY=1.016;exitDx=0;exitDy=0;entryX=0.5;entryY=0;entryDx=0;entryDy=0;exitPerimeter=0;" edge="1" parent="1">
          <mxGeometry width="50" height="50" relative="1" as="geometry">
            <mxPoint x="-235.27999999999952" y="1760.96" as="sourcePoint" />
            <mxPoint x="-234.72000000000003" y="1819.9999999999995" as="targetPoint" />
          </mxGeometry>
        </mxCell>
        <mxCell id="QNZPNAqnqf72muDM4D6j-100" value="" style="endArrow=classic;html=1;rounded=0;fontSize=14;exitX=0.484;exitY=1.016;exitDx=0;exitDy=0;entryX=0.5;entryY=0;entryDx=0;entryDy=0;exitPerimeter=0;" edge="1" parent="1">
          <mxGeometry width="50" height="50" relative="1" as="geometry">
            <mxPoint x="-235.27999999999952" y="1880.96" as="sourcePoint" />
            <mxPoint x="-234.72000000000003" y="1939.9999999999995" as="targetPoint" />
          </mxGeometry>
        </mxCell>
        <mxCell id="QNZPNAqnqf72muDM4D6j-101" value="" style="endArrow=classic;html=1;rounded=0;fontSize=14;exitX=0.484;exitY=1.016;exitDx=0;exitDy=0;entryX=0.5;entryY=0;entryDx=0;entryDy=0;exitPerimeter=0;" edge="1" parent="1">
          <mxGeometry width="50" height="50" relative="1" as="geometry">
            <mxPoint x="-235.27999999999952" y="2000" as="sourcePoint" />
            <mxPoint x="-234.72000000000003" y="2059.0399999999995" as="targetPoint" />
          </mxGeometry>
        </mxCell>
        <mxCell id="QNZPNAqnqf72muDM4D6j-102" value="" style="endArrow=classic;html=1;rounded=0;fontSize=14;exitX=0.484;exitY=1.016;exitDx=0;exitDy=0;entryX=0.5;entryY=0;entryDx=0;entryDy=0;exitPerimeter=0;" edge="1" parent="1">
          <mxGeometry width="50" height="50" relative="1" as="geometry">
            <mxPoint x="-235.27999999999952" y="2120" as="sourcePoint" />
            <mxPoint x="-234.72000000000003" y="2179.0399999999995" as="targetPoint" />
          </mxGeometry>
        </mxCell>
        <mxCell id="QNZPNAqnqf72muDM4D6j-103" value="" style="endArrow=classic;html=1;rounded=0;fontSize=14;exitX=0.484;exitY=1.016;exitDx=0;exitDy=0;entryX=0.5;entryY=0;entryDx=0;entryDy=0;exitPerimeter=0;" edge="1" parent="1">
          <mxGeometry width="50" height="50" relative="1" as="geometry">
            <mxPoint x="-235.27999999999952" y="2240.96" as="sourcePoint" />
            <mxPoint x="-234.72000000000003" y="2299.9999999999995" as="targetPoint" />
          </mxGeometry>
        </mxCell>
        <mxCell id="QNZPNAqnqf72muDM4D6j-104" value="" style="endArrow=classic;html=1;rounded=0;fontSize=14;exitX=0.484;exitY=1.016;exitDx=0;exitDy=0;entryX=0.5;entryY=0;entryDx=0;entryDy=0;exitPerimeter=0;" edge="1" parent="1">
          <mxGeometry width="50" height="50" relative="1" as="geometry">
            <mxPoint x="-235.27999999999952" y="2360" as="sourcePoint" />
            <mxPoint x="-234.72000000000003" y="2419.039999999999" as="targetPoint" />
          </mxGeometry>
        </mxCell>
        <mxCell id="QNZPNAqnqf72muDM4D6j-105" value="" style="endArrow=classic;html=1;rounded=0;fontSize=14;exitX=0.484;exitY=1.016;exitDx=0;exitDy=0;entryX=0.5;entryY=0;entryDx=0;entryDy=0;exitPerimeter=0;" edge="1" parent="1">
          <mxGeometry width="50" height="50" relative="1" as="geometry">
            <mxPoint x="-235.27999999999952" y="2480.96" as="sourcePoint" />
            <mxPoint x="-234.72000000000003" y="2539.9999999999995" as="targetPoint" />
          </mxGeometry>
        </mxCell>
        <mxCell id="QNZPNAqnqf72muDM4D6j-106" value="" style="endArrow=classic;html=1;rounded=0;fontSize=14;exitX=0.484;exitY=1.016;exitDx=0;exitDy=0;entryX=0.5;entryY=0;entryDx=0;entryDy=0;exitPerimeter=0;" edge="1" parent="1">
          <mxGeometry width="50" height="50" relative="1" as="geometry">
            <mxPoint x="-235.27999999999952" y="2600.96" as="sourcePoint" />
            <mxPoint x="-234.72000000000003" y="2659.999999999999" as="targetPoint" />
          </mxGeometry>
        </mxCell>
        <mxCell id="QNZPNAqnqf72muDM4D6j-107" value="" style="endArrow=classic;html=1;rounded=0;fontSize=14;exitX=0.484;exitY=1.016;exitDx=0;exitDy=0;entryX=0.5;entryY=0;entryDx=0;entryDy=0;exitPerimeter=0;" edge="1" parent="1">
          <mxGeometry width="50" height="50" relative="1" as="geometry">
            <mxPoint x="-235.27999999999952" y="2720" as="sourcePoint" />
            <mxPoint x="-234.72000000000003" y="2779.039999999999" as="targetPoint" />
          </mxGeometry>
        </mxCell>
        <mxCell id="QNZPNAqnqf72muDM4D6j-108" value="" style="whiteSpace=wrap;html=1;fontSize=14;" vertex="1" parent="1">
          <mxGeometry x="-480" y="2910" width="120" height="60" as="geometry" />
        </mxCell>
        <mxCell id="QNZPNAqnqf72muDM4D6j-109" value="if(event.registrationForm.year == &#39;true&#39;) {&lt;br&gt;college year }" style="whiteSpace=wrap;html=1;fontSize=14;" vertex="1" parent="1">
          <mxGeometry x="-540" y="2910" width="310" height="60" as="geometry" />
        </mxCell>
        <mxCell id="QNZPNAqnqf72muDM4D6j-110" value="" style="endArrow=classic;html=1;rounded=0;fontSize=14;entryX=0.5;entryY=0;entryDx=0;entryDy=0;" edge="1" parent="1" target="QNZPNAqnqf72muDM4D6j-109">
          <mxGeometry width="50" height="50" relative="1" as="geometry">
            <mxPoint x="-300" y="2840" as="sourcePoint" />
            <mxPoint x="-250" y="2790" as="targetPoint" />
          </mxGeometry>
        </mxCell>
        <mxCell id="QNZPNAqnqf72muDM4D6j-111" value="if(event.registrationForm.eduQualification == &#39;true&#39;) {&lt;br&gt;education qualification&amp;nbsp; }" style="whiteSpace=wrap;html=1;fontSize=14;" vertex="1" parent="1">
          <mxGeometry x="-580" y="3020" width="350" height="60" as="geometry" />
        </mxCell>
        <mxCell id="QNZPNAqnqf72muDM4D6j-112" value="if(event.registrationForm.chooseSession == &#39;true&#39;) {&lt;br&gt;choose participating session }" style="whiteSpace=wrap;html=1;fontSize=14;" vertex="1" parent="1">
          <mxGeometry x="-580" y="3130" width="350" height="60" as="geometry" />
        </mxCell>
        <mxCell id="QNZPNAqnqf72muDM4D6j-113" value="if(event.registrationForm.statupName == &#39;true&#39;) {&lt;br&gt;startup name }" style="whiteSpace=wrap;html=1;fontSize=14;" vertex="1" parent="1">
          <mxGeometry x="-580" y="3240" width="350" height="60" as="geometry" />
        </mxCell>
        <mxCell id="QNZPNAqnqf72muDM4D6j-114" value="&amp;nbsp;if(event.registrationForm.winningCity == &#39;true&#39;) {&amp;nbsp;&lt;br&gt;city in which you are winner }" style="whiteSpace=wrap;html=1;fontSize=14;" vertex="1" parent="1">
          <mxGeometry x="-580" y="3350" width="350" height="60" as="geometry" />
        </mxCell>
        <mxCell id="QNZPNAqnqf72muDM4D6j-115" value="if(event.registrationForm.finalRank == &#39;true&#39;) {&lt;br&gt;final rank in city&amp;nbsp; }" style="whiteSpace=wrap;html=1;fontSize=14;" vertex="1" parent="1">
          <mxGeometry x="-580" y="3460" width="350" height="60" as="geometry" />
        </mxCell>
        <mxCell id="QNZPNAqnqf72muDM4D6j-116" value="if(event.registrationForm.branch == &#39;true&#39;) {&lt;br&gt;branch }" style="whiteSpace=wrap;html=1;fontSize=14;" vertex="1" parent="1">
          <mxGeometry x="-580" y="3560" width="350" height="60" as="geometry" />
        </mxCell>
        <mxCell id="QNZPNAqnqf72muDM4D6j-117" value="if(event.registrationForm.organization == &#39;true&#39;) {&lt;br&gt;organisation name/college name }" style="whiteSpace=wrap;html=1;fontSize=14;" vertex="1" parent="1">
          <mxGeometry x="-580" y="3670" width="350" height="60" as="geometry" />
        </mxCell>
        <mxCell id="QNZPNAqnqf72muDM4D6j-118" value="&amp;nbsp;if(event.registrationForm.userRegistringAs == &#39;true&#39;) {&lt;br&gt;registeration as&amp;nbsp;" style="whiteSpace=wrap;html=1;fontSize=14;" vertex="1" parent="1">
          <mxGeometry x="-580" y="3780" width="350" height="60" as="geometry" />
        </mxCell>
        <mxCell id="QNZPNAqnqf72muDM4D6j-119" value="if(event.registrationForm.teacherReg == &#39;true&#39;) {&lt;br&gt;mentor&amp;nbsp; }" style="whiteSpace=wrap;html=1;fontSize=14;" vertex="1" parent="1">
          <mxGeometry x="-580" y="3890" width="350" height="60" as="geometry" />
        </mxCell>
        <mxCell id="QNZPNAqnqf72muDM4D6j-120" value="if(event.registrationForm.studentReg== &#39;true&#39;) {&lt;br&gt;student }&amp;nbsp; }" style="whiteSpace=wrap;html=1;fontSize=14;" vertex="1" parent="1">
          <mxGeometry x="-580" y="4000" width="350" height="60" as="geometry" />
        </mxCell>
        <mxCell id="QNZPNAqnqf72muDM4D6j-121" value="if(event.registrationForm.cuponCode == &#39;true&#39;) {&lt;br&gt;coupon code(optional)&amp;nbsp; }" style="whiteSpace=wrap;html=1;fontSize=14;" vertex="1" parent="1">
          <mxGeometry x="-580" y="4110" width="350" height="60" as="geometry" />
        </mxCell>
        <mxCell id="QNZPNAqnqf72muDM4D6j-122" value="" style="curved=1;endArrow=classic;html=1;rounded=0;fontSize=14;entryX=1;entryY=0.5;entryDx=0;entryDy=0;exitX=1;exitY=0.5;exitDx=0;exitDy=0;" edge="1" parent="1" source="QNZPNAqnqf72muDM4D6j-118" target="QNZPNAqnqf72muDM4D6j-120">
          <mxGeometry width="50" height="50" relative="1" as="geometry">
            <mxPoint x="-400" y="3750" as="sourcePoint" />
            <mxPoint x="-210" y="3930" as="targetPoint" />
            <Array as="points">
              <mxPoint x="-150" y="3810" />
              <mxPoint x="-80" y="3910" />
            </Array>
          </mxGeometry>
        </mxCell>
        <mxCell id="QNZPNAqnqf72muDM4D6j-123" value="if(event.registrationForm.regAs_viswas == &#39;true&#39;) {&amp;nbsp;&lt;br&gt;Registeration as (select role)&amp;nbsp; }" style="whiteSpace=wrap;html=1;fontSize=14;" vertex="1" parent="1">
          <mxGeometry x="-580" y="4220" width="360" height="60" as="geometry" />
        </mxCell>
        <mxCell id="QNZPNAqnqf72muDM4D6j-124" value="" style="endArrow=classic;html=1;rounded=0;fontSize=14;entryX=0.554;entryY=0.014;entryDx=0;entryDy=0;entryPerimeter=0;" edge="1" parent="1" target="QNZPNAqnqf72muDM4D6j-111">
          <mxGeometry width="50" height="50" relative="1" as="geometry">
            <mxPoint x="-385" y="2970" as="sourcePoint" />
            <mxPoint x="-384.8100000000003" y="3019.039999999999" as="targetPoint" />
          </mxGeometry>
        </mxCell>
        <mxCell id="QNZPNAqnqf72muDM4D6j-125" value="" style="endArrow=classic;html=1;rounded=0;fontSize=14;entryX=0.554;entryY=0.014;entryDx=0;entryDy=0;entryPerimeter=0;" edge="1" parent="1">
          <mxGeometry width="50" height="50" relative="1" as="geometry">
            <mxPoint x="-404.72" y="3080" as="sourcePoint" />
            <mxPoint x="-405.2699999999999" y="3130" as="targetPoint" />
          </mxGeometry>
        </mxCell>
        <mxCell id="QNZPNAqnqf72muDM4D6j-126" value="" style="endArrow=classic;html=1;rounded=0;fontSize=14;entryX=0.554;entryY=0.014;entryDx=0;entryDy=0;entryPerimeter=0;" edge="1" parent="1">
          <mxGeometry width="50" height="50" relative="1" as="geometry">
            <mxPoint x="-410.00000000000006" y="3190" as="sourcePoint" />
            <mxPoint x="-410.55" y="3240" as="targetPoint" />
          </mxGeometry>
        </mxCell>
        <mxCell id="QNZPNAqnqf72muDM4D6j-127" value="" style="endArrow=classic;html=1;rounded=0;fontSize=14;entryX=0.554;entryY=0.014;entryDx=0;entryDy=0;entryPerimeter=0;" edge="1" parent="1">
          <mxGeometry width="50" height="50" relative="1" as="geometry">
            <mxPoint x="-415" y="3300" as="sourcePoint" />
            <mxPoint x="-415.54999999999995" y="3350" as="targetPoint" />
          </mxGeometry>
        </mxCell>
        <mxCell id="QNZPNAqnqf72muDM4D6j-128" value="" style="endArrow=classic;html=1;rounded=0;fontSize=14;entryX=0.554;entryY=0.014;entryDx=0;entryDy=0;entryPerimeter=0;" edge="1" parent="1">
          <mxGeometry width="50" height="50" relative="1" as="geometry">
            <mxPoint x="-415" y="3410" as="sourcePoint" />
            <mxPoint x="-415.54999999999995" y="3460" as="targetPoint" />
          </mxGeometry>
        </mxCell>
        <mxCell id="QNZPNAqnqf72muDM4D6j-129" value="" style="endArrow=classic;html=1;rounded=0;fontSize=14;entryX=0.554;entryY=0.014;entryDx=0;entryDy=0;entryPerimeter=0;" edge="1" parent="1">
          <mxGeometry width="50" height="50" relative="1" as="geometry">
            <mxPoint x="-415" y="3510" as="sourcePoint" />
            <mxPoint x="-415.54999999999995" y="3560" as="targetPoint" />
          </mxGeometry>
        </mxCell>
        <mxCell id="QNZPNAqnqf72muDM4D6j-130" value="" style="endArrow=classic;html=1;rounded=0;fontSize=14;entryX=0.554;entryY=0.014;entryDx=0;entryDy=0;entryPerimeter=0;" edge="1" parent="1">
          <mxGeometry width="50" height="50" relative="1" as="geometry">
            <mxPoint x="-415" y="3620" as="sourcePoint" />
            <mxPoint x="-415.54999999999995" y="3670" as="targetPoint" />
          </mxGeometry>
        </mxCell>
        <mxCell id="QNZPNAqnqf72muDM4D6j-131" value="" style="endArrow=classic;html=1;rounded=0;fontSize=14;entryX=0.554;entryY=0.014;entryDx=0;entryDy=0;entryPerimeter=0;" edge="1" parent="1">
          <mxGeometry width="50" height="50" relative="1" as="geometry">
            <mxPoint x="-415" y="3730" as="sourcePoint" />
            <mxPoint x="-415.54999999999995" y="3780" as="targetPoint" />
          </mxGeometry>
        </mxCell>
        <mxCell id="QNZPNAqnqf72muDM4D6j-132" value="" style="endArrow=classic;html=1;rounded=0;fontSize=14;entryX=0.554;entryY=0.014;entryDx=0;entryDy=0;entryPerimeter=0;" edge="1" parent="1">
          <mxGeometry width="50" height="50" relative="1" as="geometry">
            <mxPoint x="-414.45" y="3840" as="sourcePoint" />
            <mxPoint x="-414.99999999999994" y="3890" as="targetPoint" />
          </mxGeometry>
        </mxCell>
        <mxCell id="QNZPNAqnqf72muDM4D6j-133" value="" style="endArrow=classic;html=1;rounded=0;fontSize=14;entryX=0.554;entryY=0.014;entryDx=0;entryDy=0;entryPerimeter=0;" edge="1" parent="1">
          <mxGeometry width="50" height="50" relative="1" as="geometry">
            <mxPoint x="-414.45000000000005" y="3950" as="sourcePoint" />
            <mxPoint x="-415" y="4000" as="targetPoint" />
          </mxGeometry>
        </mxCell>
        <mxCell id="QNZPNAqnqf72muDM4D6j-134" value="" style="endArrow=classic;html=1;rounded=0;fontSize=14;entryX=0.554;entryY=0.014;entryDx=0;entryDy=0;entryPerimeter=0;" edge="1" parent="1">
          <mxGeometry width="50" height="50" relative="1" as="geometry">
            <mxPoint x="-414.45000000000005" y="4060" as="sourcePoint" />
            <mxPoint x="-415" y="4110" as="targetPoint" />
          </mxGeometry>
        </mxCell>
        <mxCell id="QNZPNAqnqf72muDM4D6j-135" value="" style="endArrow=classic;html=1;rounded=0;fontSize=14;entryX=0.554;entryY=0.014;entryDx=0;entryDy=0;entryPerimeter=0;" edge="1" parent="1">
          <mxGeometry width="50" height="50" relative="1" as="geometry">
            <mxPoint x="-415.00000000000006" y="4170" as="sourcePoint" />
            <mxPoint x="-415.55" y="4220" as="targetPoint" />
          </mxGeometry>
        </mxCell>
        <mxCell id="QNZPNAqnqf72muDM4D6j-136" value="" style="endArrow=classic;html=1;rounded=0;fontSize=14;entryX=0.554;entryY=0.014;entryDx=0;entryDy=0;entryPerimeter=0;" edge="1" parent="1">
          <mxGeometry width="50" height="50" relative="1" as="geometry">
            <mxPoint x="-414.45" y="4280" as="sourcePoint" />
            <mxPoint x="-414.99999999999994" y="4330" as="targetPoint" />
          </mxGeometry>
        </mxCell>
        <mxCell id="QNZPNAqnqf72muDM4D6j-137" value="&amp;nbsp;if(event.registrationForm.org_viswas == &#39;true&#39;) {&lt;br&gt;organisation }" style="whiteSpace=wrap;html=1;fontSize=14;" vertex="1" parent="1">
          <mxGeometry x="-580" y="4330" width="360" height="40" as="geometry" />
        </mxCell>
        <mxCell id="QNZPNAqnqf72muDM4D6j-138" value="if(event.registrationForm.website_viswas == &#39;true&#39;) {&lt;br&gt;website&amp;nbsp; }" style="whiteSpace=wrap;html=1;fontSize=14;" vertex="1" parent="1">
          <mxGeometry x="-585" y="4400" width="360" height="30" as="geometry" />
        </mxCell>
        <mxCell id="QNZPNAqnqf72muDM4D6j-180" value="" style="edgeStyle=orthogonalEdgeStyle;rounded=0;orthogonalLoop=1;jettySize=auto;html=1;fontSize=14;" edge="1" parent="1" source="QNZPNAqnqf72muDM4D6j-139" target="QNZPNAqnqf72muDM4D6j-141">
          <mxGeometry relative="1" as="geometry" />
        </mxCell>
        <mxCell id="QNZPNAqnqf72muDM4D6j-139" value="if(event.registrationForm.category_viswas == &#39;true&#39;) {&lt;br&gt;category&amp;nbsp; }" style="whiteSpace=wrap;html=1;fontSize=14;" vertex="1" parent="1">
          <mxGeometry x="-580" y="4470" width="360" height="40" as="geometry" />
        </mxCell>
        <mxCell id="QNZPNAqnqf72muDM4D6j-140" value="if(event.registrationForm.businessYears_viswas == &#39;true&#39;) {&amp;nbsp;&lt;br&gt;how long you been in the business&amp;nbsp; }" style="whiteSpace=wrap;html=1;fontSize=14;" vertex="1" parent="1">
          <mxGeometry x="-590" y="4540" width="370" height="40" as="geometry" />
        </mxCell>
        <mxCell id="QNZPNAqnqf72muDM4D6j-181" value="" style="edgeStyle=orthogonalEdgeStyle;rounded=0;orthogonalLoop=1;jettySize=auto;html=1;fontSize=14;" edge="1" parent="1" source="QNZPNAqnqf72muDM4D6j-141" target="QNZPNAqnqf72muDM4D6j-143">
          <mxGeometry relative="1" as="geometry" />
        </mxCell>
        <mxCell id="QNZPNAqnqf72muDM4D6j-141" value="if(event.registrationForm.companyAddress_viswas == &#39;true&#39;) {&lt;br&gt;company address&amp;nbsp; &amp;nbsp;}" style="whiteSpace=wrap;html=1;fontSize=14;" vertex="1" parent="1">
          <mxGeometry x="-590" y="4610" width="430" height="40" as="geometry" />
        </mxCell>
        <mxCell id="QNZPNAqnqf72muDM4D6j-142" value="if(event.registrationForm.cofoundingMembers_viswas == &#39;true&#39;) {&amp;nbsp;&lt;br&gt;co-founding team members&amp;nbsp; }" style="whiteSpace=wrap;html=1;fontSize=14;" vertex="1" parent="1">
          <mxGeometry x="-590" y="4680" width="430" height="30" as="geometry" />
        </mxCell>
        <mxCell id="QNZPNAqnqf72muDM4D6j-182" value="" style="edgeStyle=orthogonalEdgeStyle;rounded=0;orthogonalLoop=1;jettySize=auto;html=1;fontSize=14;" edge="1" parent="1" source="QNZPNAqnqf72muDM4D6j-143" target="QNZPNAqnqf72muDM4D6j-144">
          <mxGeometry relative="1" as="geometry" />
        </mxCell>
        <mxCell id="QNZPNAqnqf72muDM4D6j-143" value="&amp;nbsp;if(event.registrationForm.capitalInvested_viswas == &#39;true&#39;) {&lt;br&gt;capital invested&amp;nbsp; &amp;nbsp;}" style="whiteSpace=wrap;html=1;fontSize=14;" vertex="1" parent="1">
          <mxGeometry x="-590" y="4740" width="430" height="50" as="geometry" />
        </mxCell>
        <mxCell id="QNZPNAqnqf72muDM4D6j-184" value="" style="edgeStyle=orthogonalEdgeStyle;rounded=0;orthogonalLoop=1;jettySize=auto;html=1;fontSize=14;" edge="1" parent="1" source="QNZPNAqnqf72muDM4D6j-144" target="QNZPNAqnqf72muDM4D6j-145">
          <mxGeometry relative="1" as="geometry" />
        </mxCell>
        <mxCell id="QNZPNAqnqf72muDM4D6j-144" value="if(event.registrationForm.fundsRequired_viswas == &#39;true&#39;) {&lt;br&gt;funds required&amp;nbsp; &amp;nbsp;}" style="whiteSpace=wrap;html=1;fontSize=14;" vertex="1" parent="1">
          <mxGeometry x="-590" y="4820" width="430" height="60" as="geometry" />
        </mxCell>
        <mxCell id="QNZPNAqnqf72muDM4D6j-185" value="" style="edgeStyle=orthogonalEdgeStyle;rounded=0;orthogonalLoop=1;jettySize=auto;html=1;fontSize=14;" edge="1" parent="1" source="QNZPNAqnqf72muDM4D6j-145" target="QNZPNAqnqf72muDM4D6j-146">
          <mxGeometry relative="1" as="geometry" />
        </mxCell>
        <mxCell id="QNZPNAqnqf72muDM4D6j-145" value="&amp;nbsp;if(event.registrationForm.financialInformation_viswas == &#39;true&#39;) {&lt;br&gt;financial information&amp;nbsp; &amp;nbsp;}" style="whiteSpace=wrap;html=1;fontSize=14;" vertex="1" parent="1">
          <mxGeometry x="-590" y="4910" width="430" height="60" as="geometry" />
        </mxCell>
        <mxCell id="QNZPNAqnqf72muDM4D6j-186" value="" style="edgeStyle=orthogonalEdgeStyle;rounded=0;orthogonalLoop=1;jettySize=auto;html=1;fontSize=14;" edge="1" parent="1" source="QNZPNAqnqf72muDM4D6j-146" target="QNZPNAqnqf72muDM4D6j-147">
          <mxGeometry relative="1" as="geometry" />
        </mxCell>
        <mxCell id="QNZPNAqnqf72muDM4D6j-146" value="if(event.registrationForm.foundersEducation_viswas == &#39;true&#39;) {&lt;br&gt;founders educational qualification&amp;nbsp; &amp;nbsp; }" style="whiteSpace=wrap;html=1;fontSize=14;" vertex="1" parent="1">
          <mxGeometry x="-590" y="5000" width="430" height="60" as="geometry" />
        </mxCell>
        <mxCell id="QNZPNAqnqf72muDM4D6j-187" value="" style="edgeStyle=orthogonalEdgeStyle;rounded=0;orthogonalLoop=1;jettySize=auto;html=1;fontSize=14;" edge="1" parent="1" source="QNZPNAqnqf72muDM4D6j-147" target="QNZPNAqnqf72muDM4D6j-148">
          <mxGeometry relative="1" as="geometry" />
        </mxCell>
        <mxCell id="QNZPNAqnqf72muDM4D6j-147" value="if(event.registrationForm.clientsOnboarded_viswas == &#39;true&#39;) {&lt;br&gt;clients on-boarded&amp;nbsp; &amp;nbsp; }" style="whiteSpace=wrap;html=1;fontSize=14;" vertex="1" parent="1">
          <mxGeometry x="-590" y="5090" width="430" height="60" as="geometry" />
        </mxCell>
        <mxCell id="QNZPNAqnqf72muDM4D6j-188" value="" style="edgeStyle=orthogonalEdgeStyle;rounded=0;orthogonalLoop=1;jettySize=auto;html=1;fontSize=14;" edge="1" parent="1" source="QNZPNAqnqf72muDM4D6j-148" target="QNZPNAqnqf72muDM4D6j-149">
          <mxGeometry relative="1" as="geometry" />
        </mxCell>
        <mxCell id="QNZPNAqnqf72muDM4D6j-148" value="&amp;nbsp;if(event.registrationForm.workingExperience_viswas == &#39;true&#39;) {&lt;br&gt;working experiences&amp;nbsp; &amp;nbsp;}" style="whiteSpace=wrap;html=1;fontSize=14;" vertex="1" parent="1">
          <mxGeometry x="-590" y="5180" width="430" height="60" as="geometry" />
        </mxCell>
        <mxCell id="QNZPNAqnqf72muDM4D6j-189" value="" style="edgeStyle=orthogonalEdgeStyle;rounded=0;orthogonalLoop=1;jettySize=auto;html=1;fontSize=14;" edge="1" parent="1" source="QNZPNAqnqf72muDM4D6j-149" target="QNZPNAqnqf72muDM4D6j-150">
          <mxGeometry relative="1" as="geometry" />
        </mxCell>
        <mxCell id="QNZPNAqnqf72muDM4D6j-149" value="if(event.registrationForm.profit_viswas == &#39;true&#39;) {&amp;nbsp;&lt;br&gt;profit&amp;nbsp; &amp;nbsp; }" style="whiteSpace=wrap;html=1;fontSize=14;" vertex="1" parent="1">
          <mxGeometry x="-590" y="5270" width="430" height="60" as="geometry" />
        </mxCell>
        <mxCell id="QNZPNAqnqf72muDM4D6j-190" value="" style="edgeStyle=orthogonalEdgeStyle;rounded=0;orthogonalLoop=1;jettySize=auto;html=1;fontSize=14;" edge="1" parent="1" source="QNZPNAqnqf72muDM4D6j-150" target="QNZPNAqnqf72muDM4D6j-151">
          <mxGeometry relative="1" as="geometry" />
        </mxCell>
        <mxCell id="QNZPNAqnqf72muDM4D6j-150" value="if(event.registrationForm.triggerEntrepreneur_viswas == &#39;true&#39;) {&lt;br&gt;what was the trigger for becomming enterprenour?&amp;nbsp; }" style="whiteSpace=wrap;html=1;fontSize=14;" vertex="1" parent="1">
          <mxGeometry x="-590" y="5360" width="430" height="60" as="geometry" />
        </mxCell>
        <mxCell id="QNZPNAqnqf72muDM4D6j-191" value="" style="edgeStyle=orthogonalEdgeStyle;rounded=0;orthogonalLoop=1;jettySize=auto;html=1;fontSize=14;" edge="1" parent="1" source="QNZPNAqnqf72muDM4D6j-151" target="QNZPNAqnqf72muDM4D6j-152">
          <mxGeometry relative="1" as="geometry" />
        </mxCell>
        <mxCell id="QNZPNAqnqf72muDM4D6j-151" value="&lt;span style=&quot;&quot;&gt;	&lt;/span&gt;if(event.registrationForm.solveProblem_viswas == &#39;true&#39;) {&lt;br&gt;what is the problem you want and why ? }" style="whiteSpace=wrap;html=1;fontSize=14;" vertex="1" parent="1">
          <mxGeometry x="-590" y="5450" width="430" height="60" as="geometry" />
        </mxCell>
        <mxCell id="QNZPNAqnqf72muDM4D6j-192" value="" style="edgeStyle=orthogonalEdgeStyle;rounded=0;orthogonalLoop=1;jettySize=auto;html=1;fontSize=14;" edge="1" parent="1" source="QNZPNAqnqf72muDM4D6j-152" target="QNZPNAqnqf72muDM4D6j-153">
          <mxGeometry relative="1" as="geometry" />
        </mxCell>
        <mxCell id="QNZPNAqnqf72muDM4D6j-152" value="if(event.registrationForm.rightPerson_viswas == &#39;true&#39;) {&amp;nbsp;&lt;br&gt;what are you right person to solve that person? }" style="whiteSpace=wrap;html=1;fontSize=14;" vertex="1" parent="1">
          <mxGeometry x="-590" y="5540" width="430" height="60" as="geometry" />
        </mxCell>
        <mxCell id="QNZPNAqnqf72muDM4D6j-193" value="" style="edgeStyle=orthogonalEdgeStyle;rounded=0;orthogonalLoop=1;jettySize=auto;html=1;fontSize=14;" edge="1" parent="1" source="QNZPNAqnqf72muDM4D6j-153" target="QNZPNAqnqf72muDM4D6j-158">
          <mxGeometry relative="1" as="geometry" />
        </mxCell>
        <mxCell id="QNZPNAqnqf72muDM4D6j-153" value="&amp;nbsp;if(event.registrationForm.learningDate_viswas == &#39;true&#39;) {&lt;br&gt;&lt;span style=&quot;white-space: pre;&quot;&gt;	&lt;/span&gt;your biggest learning to date?&amp;nbsp; }" style="whiteSpace=wrap;html=1;fontSize=14;" vertex="1" parent="1">
          <mxGeometry x="-590" y="5630" width="430" height="60" as="geometry" />
        </mxCell>
        <mxCell id="QNZPNAqnqf72muDM4D6j-194" value="" style="edgeStyle=orthogonalEdgeStyle;rounded=0;orthogonalLoop=1;jettySize=auto;html=1;fontSize=14;" edge="1" parent="1" source="QNZPNAqnqf72muDM4D6j-158" target="QNZPNAqnqf72muDM4D6j-159">
          <mxGeometry relative="1" as="geometry" />
        </mxCell>
        <mxCell id="QNZPNAqnqf72muDM4D6j-158" value="if(event.registrationForm.valuesGuide_viswas == &#39;true&#39;) {&lt;br&gt;what are the three values that guide you ?&amp;nbsp; &amp;nbsp;}" style="whiteSpace=wrap;html=1;fontSize=14;" vertex="1" parent="1">
          <mxGeometry x="-590" y="5720" width="430" height="60" as="geometry" />
        </mxCell>
        <mxCell id="QNZPNAqnqf72muDM4D6j-195" value="" style="edgeStyle=orthogonalEdgeStyle;rounded=0;orthogonalLoop=1;jettySize=auto;html=1;fontSize=14;" edge="1" parent="1" source="QNZPNAqnqf72muDM4D6j-159" target="QNZPNAqnqf72muDM4D6j-160">
          <mxGeometry relative="1" as="geometry" />
        </mxCell>
        <mxCell id="QNZPNAqnqf72muDM4D6j-159" value="&amp;nbsp;if(event.registrationForm.objective_viswas == &#39;true&#39;) {&lt;br&gt;Objective }" style="whiteSpace=wrap;html=1;fontSize=14;" vertex="1" parent="1">
          <mxGeometry x="-590" y="5810" width="430" height="60" as="geometry" />
        </mxCell>
        <mxCell id="QNZPNAqnqf72muDM4D6j-196" value="" style="edgeStyle=orthogonalEdgeStyle;rounded=0;orthogonalLoop=1;jettySize=auto;html=1;fontSize=14;" edge="1" parent="1" source="QNZPNAqnqf72muDM4D6j-160" target="QNZPNAqnqf72muDM4D6j-161">
          <mxGeometry relative="1" as="geometry" />
        </mxCell>
        <mxCell id="QNZPNAqnqf72muDM4D6j-160" value="&lt;span style=&quot;&quot;&gt;	&lt;/span&gt;if(event.registrationForm.fileUpload_viswas == &#39;true&#39;) {&lt;br&gt;upload you pitch deck(less than 5mb)&amp;nbsp; &amp;nbsp;}" style="whiteSpace=wrap;html=1;fontSize=14;" vertex="1" parent="1">
          <mxGeometry x="-590" y="5900" width="430" height="60" as="geometry" />
        </mxCell>
        <mxCell id="QNZPNAqnqf72muDM4D6j-197" value="" style="edgeStyle=orthogonalEdgeStyle;rounded=0;orthogonalLoop=1;jettySize=auto;html=1;fontSize=14;" edge="1" parent="1" source="QNZPNAqnqf72muDM4D6j-161" target="QNZPNAqnqf72muDM4D6j-162">
          <mxGeometry relative="1" as="geometry" />
        </mxCell>
        <mxCell id="QNZPNAqnqf72muDM4D6j-161" value="&amp;nbsp;if(event.registrationForm.fileUpload == &#39;true&#39;) {&lt;br&gt;upload you pitch deck(less than 5mb)" style="whiteSpace=wrap;html=1;fontSize=14;" vertex="1" parent="1">
          <mxGeometry x="-590" y="5990" width="430" height="60" as="geometry" />
        </mxCell>
        <mxCell id="QNZPNAqnqf72muDM4D6j-198" value="" style="edgeStyle=orthogonalEdgeStyle;rounded=0;orthogonalLoop=1;jettySize=auto;html=1;fontSize=14;" edge="1" parent="1" source="QNZPNAqnqf72muDM4D6j-162" target="QNZPNAqnqf72muDM4D6j-163">
          <mxGeometry relative="1" as="geometry" />
        </mxCell>
        <mxCell id="QNZPNAqnqf72muDM4D6j-162" value="if(event.registrationForm.linkedinURL == &#39;true&#39;) {&amp;nbsp;&lt;br&gt;Linkedin Url&amp;nbsp; &amp;nbsp;}" style="whiteSpace=wrap;html=1;fontSize=14;" vertex="1" parent="1">
          <mxGeometry x="-590" y="6080" width="430" height="60" as="geometry" />
        </mxCell>
        <mxCell id="QNZPNAqnqf72muDM4D6j-199" value="" style="edgeStyle=orthogonalEdgeStyle;rounded=0;orthogonalLoop=1;jettySize=auto;html=1;fontSize=14;" edge="1" parent="1" source="QNZPNAqnqf72muDM4D6j-163" target="QNZPNAqnqf72muDM4D6j-164">
          <mxGeometry relative="1" as="geometry" />
        </mxCell>
        <mxCell id="QNZPNAqnqf72muDM4D6j-163" value="if(event.registrationForm.twitterURL == &#39;true&#39;) {&lt;br&gt;twitter profile url&amp;nbsp; }" style="whiteSpace=wrap;html=1;fontSize=14;" vertex="1" parent="1">
          <mxGeometry x="-590" y="6170" width="430" height="60" as="geometry" />
        </mxCell>
        <mxCell id="QNZPNAqnqf72muDM4D6j-200" value="" style="edgeStyle=orthogonalEdgeStyle;rounded=0;orthogonalLoop=1;jettySize=auto;html=1;fontSize=14;" edge="1" parent="1" source="QNZPNAqnqf72muDM4D6j-164" target="QNZPNAqnqf72muDM4D6j-165">
          <mxGeometry relative="1" as="geometry" />
        </mxCell>
        <mxCell id="QNZPNAqnqf72muDM4D6j-164" value="&amp;nbsp;if(event.registrationForm.githubURL == &#39;true&#39;) {&lt;br&gt;github url }" style="whiteSpace=wrap;html=1;fontSize=14;" vertex="1" parent="1">
          <mxGeometry x="-590" y="6260" width="430" height="60" as="geometry" />
        </mxCell>
        <mxCell id="QNZPNAqnqf72muDM4D6j-201" value="" style="edgeStyle=orthogonalEdgeStyle;rounded=0;orthogonalLoop=1;jettySize=auto;html=1;fontSize=14;" edge="1" parent="1" source="QNZPNAqnqf72muDM4D6j-165" target="QNZPNAqnqf72muDM4D6j-166">
          <mxGeometry relative="1" as="geometry" />
        </mxCell>
        <mxCell id="QNZPNAqnqf72muDM4D6j-165" value="&amp;nbsp;if(event.registrationForm.international_opportunity == &#39;true&#39;) {&amp;nbsp;&lt;br&gt;what is the opportunity and how it grow in international? }" style="whiteSpace=wrap;html=1;fontSize=14;" vertex="1" parent="1">
          <mxGeometry x="-590" y="6350" width="430" height="60" as="geometry" />
        </mxCell>
        <mxCell id="QNZPNAqnqf72muDM4D6j-202" value="" style="edgeStyle=orthogonalEdgeStyle;rounded=0;orthogonalLoop=1;jettySize=auto;html=1;fontSize=14;" edge="1" parent="1" source="QNZPNAqnqf72muDM4D6j-166" target="QNZPNAqnqf72muDM4D6j-167">
          <mxGeometry relative="1" as="geometry" />
        </mxCell>
        <mxCell id="QNZPNAqnqf72muDM4D6j-166" value="&amp;nbsp;if(event.registrationForm.financial_State == &#39;true&#39;) {&lt;br&gt;financial state (if applicable)&amp;nbsp; &amp;nbsp;}" style="whiteSpace=wrap;html=1;fontSize=14;" vertex="1" parent="1">
          <mxGeometry x="-590" y="6440" width="430" height="60" as="geometry" />
        </mxCell>
        <mxCell id="QNZPNAqnqf72muDM4D6j-203" value="" style="edgeStyle=orthogonalEdgeStyle;rounded=0;orthogonalLoop=1;jettySize=auto;html=1;fontSize=14;" edge="1" parent="1" source="QNZPNAqnqf72muDM4D6j-167" target="QNZPNAqnqf72muDM4D6j-168">
          <mxGeometry relative="1" as="geometry" />
        </mxCell>
        <mxCell id="QNZPNAqnqf72muDM4D6j-167" value="&amp;nbsp;if(event.registrationForm.global_exposure == &#39;true&#39;) {&lt;br&gt;how is global exposure attainable for your startup?&amp;nbsp; }" style="whiteSpace=wrap;html=1;fontSize=14;" vertex="1" parent="1">
          <mxGeometry x="-590" y="6530" width="430" height="60" as="geometry" />
        </mxCell>
        <mxCell id="QNZPNAqnqf72muDM4D6j-204" value="" style="edgeStyle=orthogonalEdgeStyle;rounded=0;orthogonalLoop=1;jettySize=auto;html=1;fontSize=14;" edge="1" parent="1" source="QNZPNAqnqf72muDM4D6j-168" target="QNZPNAqnqf72muDM4D6j-169">
          <mxGeometry relative="1" as="geometry" />
        </mxCell>
        <mxCell id="QNZPNAqnqf72muDM4D6j-168" value="if(event.registrationForm.how_found_us == &#39;true&#39;) {&lt;br&gt;how did you find about us?&amp;nbsp; &amp;nbsp;}" style="whiteSpace=wrap;html=1;fontSize=14;" vertex="1" parent="1">
          <mxGeometry x="-590" y="6620" width="430" height="60" as="geometry" />
        </mxCell>
        <mxCell id="QNZPNAqnqf72muDM4D6j-205" value="" style="edgeStyle=orthogonalEdgeStyle;rounded=0;orthogonalLoop=1;jettySize=auto;html=1;fontSize=14;" edge="1" parent="1" source="QNZPNAqnqf72muDM4D6j-169" target="QNZPNAqnqf72muDM4D6j-170">
          <mxGeometry relative="1" as="geometry" />
        </mxCell>
        <mxCell id="QNZPNAqnqf72muDM4D6j-169" value="if(event.registrationForm.agree_aus == &#39;true&#39;) {&lt;br&gt;please confirm you are an australian......}&amp;nbsp;" style="whiteSpace=wrap;html=1;fontSize=14;" vertex="1" parent="1">
          <mxGeometry x="-590" y="6710" width="430" height="60" as="geometry" />
        </mxCell>
        <mxCell id="QNZPNAqnqf72muDM4D6j-206" value="" style="edgeStyle=orthogonalEdgeStyle;rounded=0;orthogonalLoop=1;jettySize=auto;html=1;fontSize=14;" edge="1" parent="1" source="QNZPNAqnqf72muDM4D6j-170" target="QNZPNAqnqf72muDM4D6j-171">
          <mxGeometry relative="1" as="geometry" />
        </mxCell>
        <mxCell id="QNZPNAqnqf72muDM4D6j-170" value="&amp;nbsp;if(event.registrationForm.masaiEmployed == &#39;true&#39;) {&lt;br&gt;currently employeed&amp;nbsp; }" style="whiteSpace=wrap;html=1;fontSize=14;" vertex="1" parent="1">
          <mxGeometry x="-590" y="6800" width="430" height="60" as="geometry" />
        </mxCell>
        <mxCell id="QNZPNAqnqf72muDM4D6j-207" value="" style="edgeStyle=orthogonalEdgeStyle;rounded=0;orthogonalLoop=1;jettySize=auto;html=1;fontSize=14;" edge="1" parent="1" source="QNZPNAqnqf72muDM4D6j-171" target="QNZPNAqnqf72muDM4D6j-173">
          <mxGeometry relative="1" as="geometry" />
        </mxCell>
        <mxCell id="QNZPNAqnqf72muDM4D6j-171" value="if(event.registrationForm.masaiLaptop == &#39;true&#39;) {&lt;br&gt;do you have laptop to attend this workshop?&amp;nbsp; }" style="whiteSpace=wrap;html=1;fontSize=14;" vertex="1" parent="1">
          <mxGeometry x="-590" y="6890" width="430" height="60" as="geometry" />
        </mxCell>
        <mxCell id="QNZPNAqnqf72muDM4D6j-214" value="" style="edgeStyle=orthogonalEdgeStyle;rounded=0;orthogonalLoop=1;jettySize=auto;html=1;fontSize=14;" edge="1" parent="1" source="QNZPNAqnqf72muDM4D6j-173" target="QNZPNAqnqf72muDM4D6j-208">
          <mxGeometry relative="1" as="geometry" />
        </mxCell>
        <mxCell id="QNZPNAqnqf72muDM4D6j-173" value="if(event.registrationForm.masaiEdu == &#39;true&#39;) {&lt;br&gt;educational background&amp;nbsp; }" style="whiteSpace=wrap;html=1;fontSize=14;" vertex="1" parent="1">
          <mxGeometry x="-590" y="6980" width="430" height="60" as="geometry" />
        </mxCell>
        <mxCell id="QNZPNAqnqf72muDM4D6j-174" value="" style="endArrow=classic;html=1;rounded=0;fontSize=14;entryX=0.462;entryY=0.028;entryDx=0;entryDy=0;entryPerimeter=0;exitX=0.45;exitY=1.029;exitDx=0;exitDy=0;exitPerimeter=0;" edge="1" parent="1" source="QNZPNAqnqf72muDM4D6j-137" target="QNZPNAqnqf72muDM4D6j-138">
          <mxGeometry width="50" height="50" relative="1" as="geometry">
            <mxPoint x="-404.4499999999998" y="4290" as="sourcePoint" />
            <mxPoint x="-405" y="4340" as="targetPoint" />
          </mxGeometry>
        </mxCell>
        <mxCell id="QNZPNAqnqf72muDM4D6j-175" value="" style="endArrow=classic;html=1;rounded=0;fontSize=14;entryX=0.459;entryY=0.015;entryDx=0;entryDy=0;entryPerimeter=0;exitX=0.45;exitY=1.029;exitDx=0;exitDy=0;exitPerimeter=0;" edge="1" parent="1" target="QNZPNAqnqf72muDM4D6j-139">
          <mxGeometry width="50" height="50" relative="1" as="geometry">
            <mxPoint x="-415.12" y="4430" as="sourcePoint" />
            <mxPoint x="-415.79999999999984" y="4459.68" as="targetPoint" />
          </mxGeometry>
        </mxCell>
        <mxCell id="QNZPNAqnqf72muDM4D6j-215" value="" style="edgeStyle=orthogonalEdgeStyle;rounded=0;orthogonalLoop=1;jettySize=auto;html=1;fontSize=14;" edge="1" parent="1" source="QNZPNAqnqf72muDM4D6j-208" target="QNZPNAqnqf72muDM4D6j-209">
          <mxGeometry relative="1" as="geometry" />
        </mxCell>
        <mxCell id="QNZPNAqnqf72muDM4D6j-208" value="if(event.eventUrl == &#39;aiacclr82021&#39;) {&lt;br&gt;name of the startup&amp;nbsp; &amp;nbsp;}" style="whiteSpace=wrap;html=1;fontSize=14;" vertex="1" parent="1">
          <mxGeometry x="-450" y="7070" width="240" height="60" as="geometry" />
        </mxCell>
        <mxCell id="QNZPNAqnqf72muDM4D6j-216" value="" style="edgeStyle=orthogonalEdgeStyle;rounded=0;orthogonalLoop=1;jettySize=auto;html=1;fontSize=14;" edge="1" parent="1" source="QNZPNAqnqf72muDM4D6j-209" target="QNZPNAqnqf72muDM4D6j-210">
          <mxGeometry relative="1" as="geometry" />
        </mxCell>
        <mxCell id="QNZPNAqnqf72muDM4D6j-209" value="&amp;nbsp;if(event.registrationForm.) {&lt;br&gt;empty code&amp;nbsp; &amp;nbsp; }" style="whiteSpace=wrap;html=1;fontSize=14;" vertex="1" parent="1">
          <mxGeometry x="-450" y="7160" width="240" height="60" as="geometry" />
        </mxCell>
        <mxCell id="QNZPNAqnqf72muDM4D6j-219" value="" style="edgeStyle=orthogonalEdgeStyle;rounded=0;orthogonalLoop=1;jettySize=auto;html=1;fontSize=14;" edge="1" parent="1" source="QNZPNAqnqf72muDM4D6j-210" target="QNZPNAqnqf72muDM4D6j-217">
          <mxGeometry relative="1" as="geometry" />
        </mxCell>
        <mxCell id="QNZPNAqnqf72muDM4D6j-210" value="&amp;nbsp; &amp;nbsp; &amp;nbsp;if(event.registrationForm.) {" style="whiteSpace=wrap;html=1;fontSize=14;" vertex="1" parent="1">
          <mxGeometry x="-450" y="7250" width="240" height="60" as="geometry" />
        </mxCell>
        <mxCell id="QNZPNAqnqf72muDM4D6j-211" value="&lt;span style=&quot;color: rgb(0, 0, 0); font-family: Helvetica; font-size: 14px; font-style: normal; font-variant-ligatures: normal; font-variant-caps: normal; font-weight: 400; letter-spacing: normal; orphans: 2; text-align: center; text-indent: 0px; text-transform: none; widows: 2; word-spacing: 0px; -webkit-text-stroke-width: 0px; background-color: rgb(248, 249, 250); text-decoration-thickness: initial; text-decoration-style: initial; text-decoration-color: initial; float: none; display: inline !important;&quot;&gt;# }&lt;/span&gt;" style="ellipse;whiteSpace=wrap;html=1;fontSize=14;" vertex="1" parent="1">
          <mxGeometry x="-440" y="7265" width="30" height="30" as="geometry" />
        </mxCell>
        <mxCell id="QNZPNAqnqf72muDM4D6j-212" value="" style="endArrow=classic;html=1;rounded=0;fontSize=14;exitX=0;exitY=0.5;exitDx=0;exitDy=0;" edge="1" parent="1" source="QNZPNAqnqf72muDM4D6j-210">
          <mxGeometry width="50" height="50" relative="1" as="geometry">
            <mxPoint x="-340" y="7140" as="sourcePoint" />
            <mxPoint x="-470" y="7280" as="targetPoint" />
          </mxGeometry>
        </mxCell>
        <mxCell id="QNZPNAqnqf72muDM4D6j-213" value="danish problem 1" style="text;html=1;align=center;verticalAlign=middle;resizable=0;points=[];autosize=1;strokeColor=none;fillColor=none;fontSize=14;" vertex="1" parent="1">
          <mxGeometry x="-595" y="7265" width="130" height="30" as="geometry" />
        </mxCell>
        <mxCell id="QNZPNAqnqf72muDM4D6j-217" value="if(event.eventUrl === &#39;masaiworkshop&#39;) {&lt;br&gt;Registeration closed!&amp;nbsp; &amp;nbsp;}" style="whiteSpace=wrap;html=1;fontSize=14;" vertex="1" parent="1">
          <mxGeometry x="-465" y="7350" width="270" height="60" as="geometry" />
        </mxCell>
        <mxCell id="QNZPNAqnqf72muDM4D6j-226" value="" style="edgeStyle=orthogonalEdgeStyle;rounded=0;orthogonalLoop=1;jettySize=auto;html=1;fontSize=14;" edge="1" parent="1" source="QNZPNAqnqf72muDM4D6j-218" target="QNZPNAqnqf72muDM4D6j-221">
          <mxGeometry relative="1" as="geometry" />
        </mxCell>
        <mxCell id="QNZPNAqnqf72muDM4D6j-218" value="else {" style="whiteSpace=wrap;html=1;fontSize=14;" vertex="1" parent="1">
          <mxGeometry x="-195" y="7490" width="120" height="60" as="geometry" />
        </mxCell>
        <mxCell id="QNZPNAqnqf72muDM4D6j-220" value="" style="endArrow=classic;html=1;rounded=0;fontSize=14;entryX=0.5;entryY=0;entryDx=0;entryDy=0;exitX=0.75;exitY=1;exitDx=0;exitDy=0;" edge="1" parent="1" source="QNZPNAqnqf72muDM4D6j-217" target="QNZPNAqnqf72muDM4D6j-218">
          <mxGeometry width="50" height="50" relative="1" as="geometry">
            <mxPoint x="-310" y="7470" as="sourcePoint" />
            <mxPoint x="-260" y="7420" as="targetPoint" />
          </mxGeometry>
        </mxCell>
        <mxCell id="QNZPNAqnqf72muDM4D6j-230" value="" style="edgeStyle=orthogonalEdgeStyle;rounded=0;orthogonalLoop=1;jettySize=auto;html=1;fontSize=14;" edge="1" parent="1" source="QNZPNAqnqf72muDM4D6j-221" target="QNZPNAqnqf72muDM4D6j-222">
          <mxGeometry relative="1" as="geometry">
            <mxPoint x="-5" y="7760" as="targetPoint" />
            <Array as="points">
              <mxPoint x="60" y="7670" />
              <mxPoint x="170" y="7670" />
            </Array>
          </mxGeometry>
        </mxCell>
        <mxCell id="QNZPNAqnqf72muDM4D6j-221" value="&amp;nbsp;if(event.isSparkEvent) {&lt;br&gt;i agreed to recive marketing related .......}" style="whiteSpace=wrap;html=1;fontSize=14;" vertex="1" parent="1">
          <mxGeometry x="-130" y="7590" width="250" height="60" as="geometry" />
        </mxCell>
        <mxCell id="QNZPNAqnqf72muDM4D6j-231" value="" style="edgeStyle=orthogonalEdgeStyle;rounded=0;orthogonalLoop=1;jettySize=auto;html=1;fontSize=14;" edge="1" parent="1" source="QNZPNAqnqf72muDM4D6j-222" target="QNZPNAqnqf72muDM4D6j-223">
          <mxGeometry relative="1" as="geometry" />
        </mxCell>
        <mxCell id="QNZPNAqnqf72muDM4D6j-222" value="else {" style="whiteSpace=wrap;html=1;fontSize=14;" vertex="1" parent="1">
          <mxGeometry x="110" y="7700" width="120" height="60" as="geometry" />
        </mxCell>
        <mxCell id="QNZPNAqnqf72muDM4D6j-232" value="" style="edgeStyle=orthogonalEdgeStyle;rounded=0;orthogonalLoop=1;jettySize=auto;html=1;fontSize=14;" edge="1" parent="1" source="QNZPNAqnqf72muDM4D6j-223" target="QNZPNAqnqf72muDM4D6j-224">
          <mxGeometry relative="1" as="geometry" />
        </mxCell>
        <mxCell id="QNZPNAqnqf72muDM4D6j-223" value="&lt;span style=&quot;&quot;&gt;	&lt;/span&gt;if(event.eventUrl===&quot;DevDayPune&quot;){&lt;br&gt;by clicking on agree to recive emails from globant.&amp;nbsp; &amp;nbsp; }&amp;nbsp;" style="whiteSpace=wrap;html=1;fontSize=14;" vertex="1" parent="1">
          <mxGeometry x="170" y="7790" width="310" height="60" as="geometry" />
        </mxCell>
        <mxCell id="QNZPNAqnqf72muDM4D6j-224" value="} } }" style="whiteSpace=wrap;html=1;fontSize=14;" vertex="1" parent="1">
          <mxGeometry x="330" y="7880" width="120" height="60" as="geometry" />
        </mxCell>
        <mxCell id="QNZPNAqnqf72muDM4D6j-233" value="" style="curved=1;endArrow=classic;html=1;rounded=0;fontSize=14;" edge="1" parent="1">
          <mxGeometry width="50" height="50" relative="1" as="geometry">
            <mxPoint x="-200" y="7280" as="sourcePoint" />
            <mxPoint x="450" y="7910" as="targetPoint" />
            <Array as="points">
              <mxPoint x="670" y="7230" />
              <mxPoint x="1280" y="7810" />
            </Array>
          </mxGeometry>
        </mxCell>
        <mxCell id="QNZPNAqnqf72muDM4D6j-234" value="" style="curved=1;endArrow=classic;html=1;rounded=0;fontSize=14;entryX=1;entryY=0.5;entryDx=0;entryDy=0;" edge="1" parent="1" target="QNZPNAqnqf72muDM4D6j-224">
          <mxGeometry width="50" height="50" relative="1" as="geometry">
            <mxPoint x="-70" y="7520" as="sourcePoint" />
            <mxPoint x="580" y="7850" as="targetPoint" />
            <Array as="points">
              <mxPoint x="490" y="7290" />
              <mxPoint x="1020" y="7670" />
            </Array>
          </mxGeometry>
        </mxCell>
        <mxCell id="QNZPNAqnqf72muDM4D6j-237" value="" style="curved=1;endArrow=classic;html=1;rounded=0;fontSize=14;exitX=1;exitY=0.5;exitDx=0;exitDy=0;" edge="1" parent="1" source="QNZPNAqnqf72muDM4D6j-222">
          <mxGeometry width="50" height="50" relative="1" as="geometry">
            <mxPoint x="680" y="7730" as="sourcePoint" />
            <mxPoint x="450" y="7910" as="targetPoint" />
            <Array as="points">
              <mxPoint x="440" y="7670" />
              <mxPoint x="590" y="7790" />
            </Array>
          </mxGeometry>
        </mxCell>
      </root>
    </mxGraphModel>
  </diagram>
</mxfile>
